<svg width="399" height="383" viewBox="0 0 399 383" fill="none" xmlns="http://www.w3.org/2000/svg">
<path d="M3.22737 319.911C3.24485 319.744 3.28854 319.586 3.32348 319.423C3.67298 317.288 5.3855 315.638 7.54799 315.638L50.9333 315.638C53.3491 315.638 55.3019 317.659 55.3019 320.16C55.3019 322.661 53.3491 324.682 50.9333 324.682L16.6174 324.682C37.4865 349.56 65.9921 365.605 97.8179 370.114C132.558 375.043 167.101 365.655 195.038 343.699C218.948 324.913 235.584 298.837 242.867 269.166C241.027 268.981 239.184 268.755 237.345 268.497C200.276 263.246 167.406 243.362 144.781 212.51C111.658 167.346 116.472 132.401 130.657 116.207C144.873 99.9808 169.39 99.2572 193.116 114.371C205.073 121.987 216.537 133.22 227.192 147.75C249.817 178.597 259.476 216.716 254.404 255.088C254.151 256.997 253.862 258.891 253.544 260.777C283.063 261.587 311.843 251.913 335.753 233.123C393.433 187.796 404.735 102.346 360.952 42.6375C350.952 28.9981 340.284 18.5243 329.253 11.4966C327.195 10.1896 326.557 7.4039 327.82 5.27387C329.087 3.14385 331.782 2.47903 333.831 3.7905C345.788 11.4061 357.256 22.6351 367.911 37.1699C414.612 100.849 402.555 191.983 341.039 240.332C315.102 260.718 283.866 270.916 251.731 269.777C244.177 302.107 226.266 330.525 200.329 350.908C175.716 370.25 146.306 380.438 115.926 380.438C109.53 380.438 103.082 379.986 96.6339 379.073C63.6417 374.397 33.9959 358.112 11.9167 332.845L11.9167 365.072C11.9167 367.572 9.96387 369.594 7.54799 369.594C5.13212 369.594 3.17932 367.572 3.17932 365.072L3.17932 320.16C3.17932 320.074 3.22301 320.002 3.22737 319.911ZM245.745 253.863C250.507 217.887 241.442 182.143 220.232 153.222C210.233 139.583 199.569 129.109 188.533 122.077C178.45 115.651 168.512 112.444 159.665 112.444C150.718 112.444 142.881 115.728 137.136 122.29C124.248 136.992 123.772 168.906 151.745 207.047C172.955 235.972 203.776 254.613 238.528 259.538C240.604 259.832 242.674 260.076 244.749 260.266C245.129 258.145 245.461 256.011 245.745 253.863Z" fill="black" stroke="black" stroke-width="5"/>
</svg>
